<svg xmlns="http://www.w3.org/2000/svg" width="2200" height="1320" viewBox="0 0 2200 1320"><defs><filter id="grain"><feTurbulence type="fractalNoise" baseFrequency=".8" numOctaves="2" seed="19"/><feColorMatrix values="1 0 0 0 0 0 1 0 0 0 0 0 1 0 0 0 0 0 .05 0"/></filter><style>.i{fill:none;stroke:#fff0d2;stroke-width:18;stroke-linecap:round;stroke-linejoin:round}.label{fill:#fff0d2;font-family:Arial,sans-serif;font-size:25px;font-weight:700;letter-spacing:4px}</style></defs><rect width="2200" height="1320" fill="#2b201a"/><g transform="translate(24 24)"><clipPath id="cd1"><rect width="594" height="630" rx="24"/></clipPath><g clip-path="url(#cd1)"><rect width="594" height="630" rx="24" fill="#b94f2d"/><g transform="translate(63.0 108.4) scale(0.72)"><g class="i"><path d="M115 350c18-115 102-195 215-195s197 80 215 195c-55-22-101-55-137-95-47 47-100 78-159 94-35-36-79-36-134 1Z"/><path d="M183 284c45 20 87 22 128 7M258 194c30 42 68 72 113 92M405 190c-9 42-3 78 20 109"/><path d="M125 365c107 53 306 55 410 0"/></g></g><text class="label" x="30" y="605">PASTRY</text></g></g><g transform="translate(642 24)"><clipPath id="cd2"><rect width="594" height="630" rx="24"/></clipPath><g clip-path="url(#cd2)"><rect width="594" height="630" rx="24" fill="#405544"/><g transform="translate(63.0 108.4) scale(0.72)"><g class="i"><path d="M165 200h250v175c0 67-54 121-121 121h-8c-67 0-121-54-121-121V200Z"/><path d="M415 255h42c67 0 67 112 0 112h-42"/><path d="M220 150c-34-43 37-62 0-112M305 150c-34-43 37-62 0-112M390 150c-34-43 37-62 0-112"/><path d="M125 510h365"/></g></g><text class="label" x="30" y="605">CAFE</text></g></g><g transform="translate(24 678)"><clipPath id="cd3"><rect width="594" height="618" rx="24"/></clipPath><g clip-path="url(#cd3)"><rect width="594" height="618" rx="24" fill="#7e392a"/><g transform="translate(63.0 102.4) scale(0.72)"><g class="i"><path d="M125 430V280c0-112 95-190 215-190s215 78 215 190v150c0 60-49 109-109 109H234c-60 0-109-49-109-109Z"/><path d="M236 145c-22 51-17 94 15 132M344 103c-18 57-10 103 26 139M450 146c-10 50 2 90 34 119"/></g></g><text class="label" x="30" y="593">BAKERY</text></g></g><g transform="translate(642 678)"><clipPath id="cd4"><rect width="594" height="618" rx="24"/></clipPath><g clip-path="url(#cd4)"><rect width="594" height="618" rx="24" fill="#b16c37"/><g transform="translate(63.0 102.4) scale(0.72)"><g class="i"><path d="m100 430 190-292c22-34 71-34 93 0l190 292H100Z"/><path d="m128 382 112-70 83 54 81-61 140 77M196 250h282"/><path d="m160 455 155 78 194-78"/></g></g><text class="label" x="30" y="593">SANDWICH</text></g></g><rect x="1248" width="8" height="1320" fill="#e6b75e"/><text x="1208" y="1260" transform="rotate(-90 1208 1260)" fill="#fff0d2" font-family="Arial" font-size="22" letter-spacing="5">NATANZON 19 · HAIFA</text><rect width="2200" height="1320" filter="url(#grain)"/></svg>